<svg width="19" height="22" viewBox="0 0 19 22" fill="none" xmlns="http://www.w3.org/2000/svg">
  <path d="M18.1532 19.4266L12.6471 12.8165C13.4877 11.4541 13.9501 9.78899 13.9501 8.07339C13.9501 5.90367 13.2356 3.88532 11.9746 2.37156C10.7137 0.857799 9.0324 0 7.22504 0C5.41769 0 3.73643 0.857799 2.47548 2.37156C1.21454 3.88532 0.5 5.90367 0.5 8.07339C0.5 10.2431 1.21454 12.2615 2.47548 13.7752C3.73643 15.289 5.41769 16.1468 7.22504 16.1468C8.52802 16.1468 9.74694 15.6927 10.8398 14.8853L16.3879 21.5459C16.6401 21.8486 16.9764 22 17.2706 22C17.5648 22 17.9011 21.8486 18.1532 21.5459C18.6156 20.9908 18.6156 20.0321 18.1532 19.4266ZM4.24081 11.656C2.60158 9.68807 2.60158 6.50917 4.24081 4.54128C5.0394 3.58257 6.13222 3.07798 7.22504 3.07798C8.31786 3.07798 9.36865 3.58257 10.2093 4.54128C11.0079 5.5 11.4282 6.76147 11.4282 8.12385C11.4282 9.48624 11.0079 10.7477 10.2093 11.7064C8.52802 13.6239 5.88003 13.6239 4.24081 11.656Z" fill="#D3A863"/>
</svg>
